<svg width="32" height="32" viewBox="0 0 32 32" fill="none" xmlns="http://www.w3.org/2000/svg">
<path d="M1.04385 17.7067C1.44483 21.1753 3.0277 24.3991 5.52529 26.834C5.24997 26.113 5.1884 25.3276 5.34796 24.5723C5.83157 22.4399 7.97557 20.9537 11.0062 20.5337V10.2433C3.1556 8.91867 0.624718 13.9104 1.04385 17.7067Z" fill="#E49F15"/>
<path d="M30.9472 14.365C30.5599 10.9119 28.9938 7.69893 26.5141 5.27002C26.7979 5.98909 26.8596 6.77698 26.6914 7.53164C26.2239 9.66403 24.0638 11.1502 21.0332 11.5703V21.8283C28.8838 23.153 31.4147 18.1774 30.9472 14.365Z" fill="#E49F15"/>
<path d="M1.38159 12.6994C3.42887 9.88854 7.08818 8.28925 13.8426 10.1955C25.7232 13.5394 29.5437 5.83377 22.7732 2.60288C20.7378 1.57797 18.4966 1.03028 16.2189 1.00122C13.9412 0.97216 11.6867 1.46249 9.62593 2.43514C7.56517 3.40779 5.75209 4.83728 4.32381 6.61551C2.89552 8.39374 1.88942 10.4742 1.38159 12.6994Z" fill="#E49F15"/>
<path d="M30.658 19.3726C28.6108 22.1834 24.9514 23.7827 18.1809 21.8765C6.31639 18.5325 2.49588 26.3028 9.2664 29.4852C11.3029 30.5101 13.5453 31.0572 15.8239 31.0853C18.1026 31.1134 20.3578 30.6217 22.4188 29.6474C24.4798 28.673 26.2926 27.2417 27.7201 25.4615C29.1475 23.6814 30.1522 21.5992 30.658 19.3726Z" fill="#E49F15"/>
</svg>
